<?xml version="1.0" standalone="no"?><!DOCTYPE svg PUBLIC "-//W3C//DTD SVG 1.1//EN" "http://www.w3.org/Graphics/SVG/1.1/DTD/svg11.dtd"><svg t="1745732846751" class="icon" viewBox="0 0 1024 1024" version="1.1" xmlns="http://www.w3.org/2000/svg" p-id="1686" xmlns:xlink="http://www.w3.org/1999/xlink" width="200" height="200"><path d="M435.950933 637.7472a34.133333 34.133333 0 0 1 32.392534-23.3472h87.313066a34.133333 34.133333 0 0 1 32.392534 23.3472l20.6848 62.088533a34.133333 34.133333 0 0 1-5.051734 31.266134L539.306667 816.913067a34.133333 34.133333 0 0 1-54.613334 0l-64.375466-85.8112a34.133333 34.133333 0 0 1-5.051734-31.266134l20.6848-62.122666z" fill="#FFAA44" p-id="1687"></path><path d="M716.8 273.066667A204.8 204.8 0 0 0 307.2 273.066667v68.266666a204.8 204.8 0 0 0 409.6 0V273.066667zM238.933333 614.4a204.8 204.8 0 0 0-204.8 204.8v68.266667a68.266667 68.266667 0 0 0 68.266667 68.266666h819.2a68.266667 68.266667 0 0 0 68.266667-68.266666v-68.266667a204.8 204.8 0 0 0-204.8-204.8h-17.408a34.133333 34.133333 0 0 0-26.965334 13.175467l-174.7968 224.733866a68.266667 68.266667 0 0 1-107.793066 0l-174.762667-224.733866A34.133333 34.133333 0 0 0 256.341333 614.4H238.933333z" fill="#FF7744" p-id="1688"></path></svg>