<?xml version="1.0" standalone="no"?><!DOCTYPE svg PUBLIC "-//W3C//DTD SVG 1.1//EN" "http://www.w3.org/Graphics/SVG/1.1/DTD/svg11.dtd"><svg t="1746086594751" class="icon" viewBox="0 0 1024 1024" version="1.1" xmlns="http://www.w3.org/2000/svg" p-id="7677" xmlns:xlink="http://www.w3.org/1999/xlink" width="200" height="200"><path d="M512 424m-177.92 0a177.92 177.92 0 1 0 355.84 0 177.92 177.92 0 1 0-355.84 0Z" fill="#FFFFFF" p-id="7678"></path><path d="M512 72A352 352 0 0 0 160 417.92a339.84 339.84 0 0 0 64 196.48 74.24 74.24 0 0 0 7.04 10.56l228.8 300.48a67.2 67.2 0 0 0 106.88 0l228.48-300.48a78.72 78.72 0 0 0 7.68-11.2 345.92 345.92 0 0 0 64-195.84A349.12 349.12 0 0 0 512 72z m0 484.16a132.16 132.16 0 1 1 132.16-132.16A131.84 131.84 0 0 1 512 556.16z" fill="#F5222D" p-id="7679"></path></svg>